# xmcd
#
# Track frame offsets:
#	150
#	10380
#	22736
#	31483
#	42440
#	54643
#	64172
#	75182
#	85802
#	98472
#
# Disc length: 1445 seconds
#
# Revision: 1
# Processed by: cddbd v1.5.1PL2 Copyright (c) Steve Scherf et al.
# Submitted via: audiograbber 1.83.01
#
DISCID=6905a30a
DTITLE=Clifton Chenier - Bayou Blues
DYEAR=1900
DGENRE=Blues
TTITLE0=All Night Long
TTITLE1=Boppin' The Rock
TTITLE2=Cliftons Squeeze Box Boogie
TTITLE3=Eh, Petite Fille
TTITLE4=Opelousas Hop
TTITLE5=The Cat's Dreamin'
TTITLE6=The Things I Did For You
TTITLE7=Think It Over
TTITLE8=Yesterday
TTITLE9=Zodico Stomp
EXTD=
EXTT0=
EXTT1=
EXTT2=
EXTT3=
EXTT4=
EXTT5=
EXTT6=
EXTT7=
EXTT8=
EXTT9=
PLAYORDER=
